<?xml version="1.0" encoding="UTF-8"?>
<svg version="1.1" xmlns="http://www.w3.org/2000/svg" width="512" height="512">
<path d="M0 0 C0.81855469 0.59425781 1.63710937 1.18851563 2.48046875 1.80078125 C12.86892989 9.83774576 21.82107805 19.64572759 31 29 C34.58798317 27.4891899 36.78151627 25.39911104 39.45703125 22.59765625 C40.31466064 21.71239258 41.17229004 20.82712891 42.0559082 19.91503906 C43.42042114 18.50303223 43.42042114 18.50303223 44.8125 17.0625 C52.95562818 8.76091114 61.13257677 1.2034462 71 -5 C71.93175049 -5.59361328 71.93175049 -5.59361328 72.88232422 -6.19921875 C103.40374223 -25.32442669 140.97530056 -30.68908052 176 -23 C197.53107536 -17.81325599 217.358209 -7.55151773 234 7 C235.09248047 7.91072266 235.09248047 7.91072266 236.20703125 8.83984375 C240.96463239 12.85151125 245.08278754 17.16793962 249 22 C249.69996094 22.86238281 250.39992188 23.72476563 251.12109375 24.61328125 C274.162568 54.12393892 283.19015518 90.04967453 279.5703125 127.09765625 C274.68190646 166.72983411 251.65001846 194.66450626 224.39526367 221.87939453 C222.42215595 223.85576799 220.45052339 225.83361088 218.47879028 227.81135559 C213.7066486 232.59615877 208.92913549 237.37556233 204.14948346 242.15286215 C200.26518724 246.03536749 196.38267756 249.91965089 192.50139809 253.80517197 C191.9467732 254.36039204 191.39214832 254.91561211 190.82071662 255.48765703 C189.69372974 256.61585576 188.56674401 257.74405562 187.43975941 258.87225662 C176.90660586 269.41625007 166.36698462 279.95375977 155.82535408 290.48927711 C146.18496541 300.12448455 136.5528453 309.76791021 126.92453917 319.41519023 C117.01965559 329.33944227 107.10923402 339.25813249 97.19278127 349.17082489 C91.63261849 354.72907607 86.07467517 360.28950373 80.52254295 365.85577774 C75.80284447 370.58737734 71.07794562 375.31370701 66.34623506 380.03329547 C63.93357 382.44006657 61.52337595 384.84918136 59.11964989 387.26488304 C56.51271422 389.8822331 53.89674058 392.4902012 51.27824402 395.09597778 C50.52114378 395.86045231 49.76404353 396.62492684 48.98400086 397.41256726 C44.63987629 401.71230646 40.70645846 405.42369091 34.4375 406.3984375 C33.633125 406.39070313 32.82875 406.38296875 32 406.375 C31.195625 406.38273437 30.39125 406.39046875 29.5625 406.3984375 C22.14261501 405.24473587 17.61605332 400.04298408 12.56990051 394.95758057 C11.73540695 394.12847255 10.90091339 393.29936452 10.04113215 392.44513202 C7.73312851 390.1489437 5.43194884 387.84616398 3.1335429 385.54037595 C0.65002369 383.05212243 -1.84210111 380.57251314 -4.33309937 378.0917511 C-9.21128456 373.23075981 -14.08125659 368.36161986 -18.948231 363.48940656 C-22.90909363 359.52449855 -26.87269526 355.56234857 -30.83825111 351.6021347 C-31.40321128 351.03792296 -31.96817144 350.47371122 -32.55025161 349.89240216 C-33.69816098 348.74602434 -34.84607374 347.59964993 -35.99398986 346.45327887 C-46.76093464 335.70006375 -57.51827473 324.9372803 -68.27261851 314.17146501 C-78.08773295 304.34643954 -87.91419644 294.53285761 -97.74624094 284.72477677 C-107.85760055 274.63787447 -117.96147156 264.54352744 -128.05729276 254.44107223 C-133.71882604 248.7760586 -139.3831334 243.11389152 -145.05519676 237.45941925 C-149.88902399 232.64039802 -154.71560848 227.81425737 -159.53337123 222.97917387 C-161.98646348 220.51763371 -164.44248666 218.05924397 -166.90752983 215.60966682 C-196.7316147 185.93367869 -216.12801895 152.67385562 -216.25 109.625 C-216.23726634 76.45637397 -204.89960366 45.04540308 -183 20 C-182.39285156 19.27167969 -181.78570312 18.54335937 -181.16015625 17.79296875 C-177.14848875 13.03536761 -172.83206038 8.91721246 -168 5 C-167.13761719 4.30003906 -166.27523437 3.60007812 -165.38671875 2.87890625 C-148.1388813 -10.58794383 -128.41118602 -19.61643414 -107 -24 C-105.39898437 -24.33837891 -105.39898437 -24.33837891 -103.765625 -24.68359375 C-67.36725376 -31.1198911 -29.66985485 -21.69634364 0 0 Z M17.19921875 123.28125 C15.09888645 126.29149825 14.87652418 128.91913306 14.88647461 132.47143555 C14.88655014 133.37214279 14.88662567 134.27285004 14.88670349 135.20085144 C14.89186478 136.16968765 14.89702606 137.13852386 14.90234375 138.13671875 C14.9037587 139.13129593 14.90517365 140.12587311 14.90663147 141.15058899 C14.91223239 144.32958982 14.92478504 147.50852043 14.9375 150.6875 C14.94251488 152.84179586 14.94707781 154.99609282 14.95117188 157.15039062 C14.96220212 162.43361774 14.97894114 167.71680385 15 173 C14.44956024 172.99333817 13.89912048 172.98667633 13.33200073 172.97981262 C7.58923194 172.91330478 1.84657305 172.86813545 -3.89648438 172.83520508 C-6.03813117 172.82014359 -8.17974724 172.79969028 -10.32128906 172.77368164 C-13.40437411 172.73718272 -16.48705038 172.72024698 -19.5703125 172.70703125 C-21.00034103 172.68380547 -21.00034103 172.68380547 -22.45925903 172.66011047 C-28.6432599 172.65855436 -33.13537862 173.35758195 -37.86328125 177.71875 C-38.58064453 178.60046875 -38.58064453 178.60046875 -39.3125 179.5 C-40.04919922 180.38171875 -40.04919922 180.38171875 -40.80078125 181.28125 C-43.50901565 185.16275858 -43.45943147 189.44902794 -43 194 C-41.15080845 199.43879866 -37.62413162 202.77361725 -33 206 C-30.16987873 206.94337376 -28.45700082 207.12172829 -25.52856445 207.11352539 C-24.62785721 207.11344986 -23.72714996 207.11337433 -22.79914856 207.11329651 C-21.34589424 207.10555458 -21.34589424 207.10555458 -19.86328125 207.09765625 C-18.86870407 207.0962413 -17.87412689 207.09482635 -16.84941101 207.09336853 C-13.67041018 207.08776761 -10.49147957 207.07521496 -7.3125 207.0625 C-5.15820414 207.05748512 -3.00390718 207.05292219 -0.84960938 207.04882812 C4.43361774 207.03779788 9.71680385 207.02105886 15 207 C14.99333817 207.55043976 14.98667633 208.10087952 14.97981262 208.66799927 C14.91330478 214.41076806 14.86813545 220.15342695 14.83520508 225.89648438 C14.82014359 228.03813117 14.79969028 230.17974724 14.77368164 232.32128906 C14.73718272 235.40437411 14.72024698 238.48705038 14.70703125 241.5703125 C14.69154739 242.52366486 14.67606354 243.47701721 14.66011047 244.45925903 C14.65855436 250.6432599 15.35758195 255.13537862 19.71875 259.86328125 C20.60046875 260.58064453 20.60046875 260.58064453 21.5 261.3125 C22.0878125 261.80363281 22.675625 262.29476562 23.28125 262.80078125 C27.16275858 265.50901565 31.44902794 265.45943147 36 265 C41.43879866 263.15080845 44.77361725 259.62413162 48 255 C48.94337376 252.16987873 49.12172829 250.45700082 49.11352539 247.52856445 C49.11344986 246.62785721 49.11337433 245.72714996 49.11329651 244.79914856 C49.10813522 243.83031235 49.10297394 242.86147614 49.09765625 241.86328125 C49.0962413 240.86870407 49.09482635 239.87412689 49.09336853 238.84941101 C49.08776761 235.67041018 49.07521496 232.49147957 49.0625 229.3125 C49.05748512 227.15820414 49.05292219 225.00390718 49.04882812 222.84960938 C49.03779788 217.56638226 49.02105886 212.28319615 49 207 C49.55043976 207.00666183 50.10087952 207.01332367 50.66799927 207.02018738 C56.41076806 207.08669522 62.15342695 207.13186455 67.89648438 207.16479492 C70.03813117 207.17985641 72.17974724 207.20030972 74.32128906 207.22631836 C77.40437411 207.26281728 80.48705038 207.27975302 83.5703125 207.29296875 C85.00034103 207.31619453 85.00034103 207.31619453 86.45925903 207.33988953 C92.6432599 207.34144564 97.13537862 206.64241805 101.86328125 202.28125 C102.58064453 201.39953125 102.58064453 201.39953125 103.3125 200.5 C103.80363281 199.9121875 104.29476562 199.324375 104.80078125 198.71875 C107.50901565 194.83724142 107.45943147 190.55097206 107 186 C105.15080845 180.56120134 101.62413162 177.22638275 97 174 C94.16987873 173.05662624 92.45700082 172.87827171 89.52856445 172.88647461 C88.62785721 172.88655014 87.72714996 172.88662567 86.79914856 172.88670349 C85.34589424 172.89444542 85.34589424 172.89444542 83.86328125 172.90234375 C82.86870407 172.9037587 81.87412689 172.90517365 80.84941101 172.90663147 C77.67041018 172.91223239 74.49147957 172.92478504 71.3125 172.9375 C69.15820414 172.94251488 67.00390718 172.94707781 64.84960938 172.95117188 C59.56638226 172.96220212 54.28319615 172.97894114 49 173 C49.00666183 172.44956024 49.01332367 171.89912048 49.02018738 171.33200073 C49.08669522 165.58923194 49.13186455 159.84657305 49.16479492 154.10351562 C49.17985641 151.96186883 49.20030972 149.82025276 49.22631836 147.67871094 C49.26281728 144.59562589 49.27975302 141.51294962 49.29296875 138.4296875 C49.30845261 137.47633514 49.32393646 136.52298279 49.33988953 135.54074097 C49.34144564 129.3567401 48.64241805 124.86462138 44.28125 120.13671875 C43.39953125 119.41935547 43.39953125 119.41935547 42.5 118.6875 C41.61828125 117.95080078 41.61828125 117.95080078 40.71875 117.19921875 C31.95115077 111.08182565 23.07074129 116.25391594 17.19921875 123.28125 Z " fill="#064296" transform="translate(224,66)"/>
</svg>
